
<svg id="DataTheta_Logo_2C_main" xmlns="http://www.w3.org/2000/svg" width="256" height="45.543" viewBox="0 0 256 45.543">
  <path id="Path_1" data-name="Path 1" d="M190.735,169.158a7.076,7.076,0,0,0-5.995,3.089q-2.26,3.085-2.26,8.975A17.034,17.034,0,0,0,184.6,190.2a6.788,6.788,0,0,0,6.154,3.47,7.314,7.314,0,0,0,6.2-3.046q2.272-3.054,2.268-8.862,0-5.882-2.124-9.243A7.017,7.017,0,0,0,190.735,169.158Zm4.75,16.872h-.743a3.307,3.307,0,0,0-.673-2.334,3.4,3.4,0,0,0-2.439-.724h-1.6a3.246,3.246,0,0,0-2.4.712,3.32,3.32,0,0,0-.685,2.334h-.731V176.74h.739a2.6,2.6,0,0,0,3.155,3.077h1.556a2.591,2.591,0,0,0,3.1-3.077h.731Z" transform="translate(-147.258 -156.176)" fill="#ed1b35"/>
  <path id="Path_2" data-name="Path 2" d="M122.7,135.79v8.251h-5.532V135.79h-9.823v8.251h-5.47V135.79H92.045v9.827h8.169v5.793H91.94v9.823h9.827v-8.465h7.154v-7.15h6.68V157.56h-7.465v7.279h-7.162v9.181h7.162v7.314h44.8V135.79Zm-22.509,23.878H93.519v-6.68h6.691Zm.105-15.619h-6.68v-6.691H100.3Zm7.049,7.154h-5.575v-5.586h5.586Zm8.259-7.162h-6.691V137.35H115.6Zm-7.465,28.4h-5.6v-6.034h5.6Zm36.346-1.649a12.262,12.262,0,0,1-9.025,3.859,11.542,11.542,0,0,1-9.251-4.061,14.394,14.394,0,0,1-3.462-9.675,12.971,12.971,0,0,1,3.89-9.811,12.772,12.772,0,0,1,9.126-3.735,12.236,12.236,0,0,1,8.66,3.7,12.929,12.929,0,0,1,3.867,9.8A13.425,13.425,0,0,1,144.481,170.79Z" transform="translate(-91.94 -135.79)" fill="#ff112f"/>
  <path id="Path_3" data-name="Path 3" d="M268.061,144.511v13.511H264.68V141.13h10.134a11.822,11.822,0,0,1,8.36,20.179,11.375,11.375,0,0,1-8.36,3.462H264.68v-3.377h10.134a8.445,8.445,0,1,0,0-16.889Z" transform="translate(-197.48 -139.053)" fill="#2b2d7d"/>
  <path id="Path_4" data-name="Path 4" d="M323.707,158.135h11.363v3.377H318.3l12.55-25.722,12.55,25.722h-3.766l-8.784-18.02Z" transform="translate(-230.241 -135.79)" fill="#2b2d7d"/>
  <path id="Path_5" data-name="Path 5" d="M390.368,144.511H370.1V141.13h20.268Zm-8.446,20.264h-3.381V147.887h3.381Z" transform="translate(-261.89 -139.053)" fill="#1a1da1"/>
  <path id="Path_6" data-name="Path 6" d="M414.884,158.135h11.367v3.377H409.48l12.546-25.722,12.554,25.722h-3.766l-8.784-18.02Z" transform="translate(-285.95 -135.79)" fill="#2b2d7d"/>
  <path id="Path_7" data-name="Path 7" d="M481.538,144.511H461.27V141.13h20.268Zm-8.446,20.264h-3.369V147.887H473.1Z" transform="translate(-317.592 -139.053)" fill="#2b2d7d"/>
  <path id="Path_8" data-name="Path 8" d="M520.14,141.13h3.381v10.134h15.2V141.13H542.1v23.645H538.72V154.66H520.14Zm3.381,23.645H520.14v-6.753h3.381Z" transform="translate(-353.561 -139.053)" fill="#2b2d7d"/>
  <path id="Path_9" data-name="Path 9" d="M605.569,141.13v3.381H588.7V161.4h16.891v3.377H585.32V141.13Zm0,13.511H592.054v-3.377h13.515Z" transform="translate(-393.384 -139.053)" fill="#2b2d7d"/>
  <path id="Path_10" data-name="Path 10" d="M666.318,144.511H646.05V141.13h20.268Zm-8.446,20.264H654.5V147.887h3.377Z" transform="translate(-430.489 -139.053)" fill="#2b2d7d"/>
  <path id="Path_11" data-name="Path 11" d="M690.834,158.135H702.2v3.377H685.43l12.55-25.722,12.569,25.722h-3.77L698,143.493Z" transform="translate(-454.549 -135.79)" fill="#2b2d7d"/>
  <path id="Path_12" data-name="Path 12" d="M271.242,229.506a2.229,2.229,0,0,0-1.825-.871,1.643,1.643,0,0,0-1.825,1.521c0,1.058.86,1.3,1.918,1.638,1.257.389,2.75.875,2.75,2.723,0,1.945-1.556,2.844-3.24,2.844A3.941,3.941,0,0,1,265.94,236l1.019-.86a2.556,2.556,0,0,0,2.089,1.1,1.7,1.7,0,0,0,1.879-1.6c0-1.113-1.031-1.439-2.221-1.809s-2.435-.914-2.435-2.634c0-1.863,1.669-2.673,3.213-2.673a3.661,3.661,0,0,1,2.684,1.074Z" transform="translate(-198.25 -191.833)" fill="#231f20"/>
  <path id="Path_13" data-name="Path 13" d="M290.54,237.443a1.774,1.774,0,0,0-1.443-.712,2.27,2.27,0,0,0,.016,4.52,1.879,1.879,0,0,0,1.506-.689l.836.755a3.007,3.007,0,0,1-2.334.98,3.309,3.309,0,1,1-.027-6.613,3.015,3.015,0,0,1,2.354,1.031Z" transform="translate(-210.35 -196.821)" fill="#231f20"/>
  <path id="Path_14" data-name="Path 14" d="M304,229.844a.8.8,0,1,1,.833-.778.8.8,0,0,1-.833.778Zm.622,7.738h-1.245V231.31h1.245Z" transform="translate(-221.034 -192.276)" fill="#231f20"/>
  <path id="Path_15" data-name="Path 15" d="M317.522,239.366h-4.976a2.011,2.011,0,0,0,2.038,1.906,2.155,2.155,0,0,0,1.825-.953l.871.7a3.233,3.233,0,0,1-2.7,1.284,3.307,3.307,0,0,1-.066-6.613,2.922,2.922,0,0,1,3.015,3.252C317.533,239.075,317.533,239.222,317.522,239.366Zm-1.245-.926a1.666,1.666,0,0,0-1.758-1.77,1.945,1.945,0,0,0-1.972,1.77Z" transform="translate(-225.93 -196.827)" fill="#231f20"/>
  <path id="Path_16" data-name="Path 16" d="M332.9,235.861c.023.319.051.778.051,1.031h.039a2.339,2.339,0,0,1,4.373,1.35v3.89h-1.245V238.65c0-1.015-.276-1.914-1.428-1.914-.98,0-1.681.817-1.681,2.062v3.334h-1.241v-4.921a11.882,11.882,0,0,0-.054-1.35Z" transform="translate(-238.434 -196.826)" fill="#231f20"/>
  <path id="Path_17" data-name="Path 17" d="M355.41,237.443a1.774,1.774,0,0,0-1.443-.712,2.27,2.27,0,0,0,.016,4.52,1.879,1.879,0,0,0,1.505-.689l.836.755a3.007,3.007,0,0,1-2.334.98,3.309,3.309,0,1,1-.027-6.613,3.015,3.015,0,0,1,2.354,1.031Z" transform="translate(-249.985 -196.821)" fill="#231f20"/>
  <path id="Path_18" data-name="Path 18" d="M373.582,239.366H368.61a2,2,0,0,0,2.035,1.906,2.159,2.159,0,0,0,1.828-.953l.871.7a3.237,3.237,0,0,1-2.7,1.284,3.307,3.307,0,0,1-.066-6.613,2.925,2.925,0,0,1,3.019,3.252,3.956,3.956,0,0,1-.016.424Zm-1.241-.926a1.669,1.669,0,0,0-1.762-1.77,1.945,1.945,0,0,0-1.969,1.77Z" transform="translate(-260.182 -196.827)" fill="#231f20"/>
  <path id="Path_19" data-name="Path 19" d="M388.146,249.728a.868.868,0,1,1,.883-.871A.879.879,0,0,1,388.146,249.728Z" transform="translate(-272.35 -204.345)" fill="#231f20"/>
  <path id="Path_20" data-name="Path 20" d="M405.731,237.544H404.42V228.18h1.311Z" transform="translate(-282.858 -192.238)" fill="#231f20"/>
  <path id="Path_21" data-name="Path 21" d="M414.5,235.861c.027.319.054.778.054,1.031h.039a2.339,2.339,0,0,1,4.373,1.35v3.89h-1.241V238.65c0-1.015-.276-1.914-1.428-1.914-.98,0-1.681.817-1.681,2.062v3.334h-1.245v-4.921a12.809,12.809,0,0,0-.051-1.35Z" transform="translate(-288.296 -196.826)" fill="#231f20"/>
  <path id="Path_22" data-name="Path 22" d="M434.7,234.345h-1.665v3.268c0,.751.265,1.058.883,1.058a1.766,1.766,0,0,0,.727-.16l.039,1.019a3.217,3.217,0,0,1-1.054.171,1.7,1.7,0,0,1-1.828-1.945v-3.4h-1.2v-1.019h1.2v-1.8h1.233v1.8H434.7Z" transform="translate(-298.854 -194.291)" fill="#231f20"/>
  <path id="Path_23" data-name="Path 23" d="M448.782,242.4c-.023-.319-.051-.778-.051-1.035H448.7a2.334,2.334,0,0,1-2.05,1.206,2.274,2.274,0,0,1-2.334-2.552v-3.89h1.245v3.451c0,1.031.276,1.945,1.428,1.945.992,0,1.681-.821,1.681-2.062V236.13h1.241v4.921a11.881,11.881,0,0,0,.054,1.35Z" transform="translate(-307.236 -197.096)" fill="#231f20"/>
  <path id="Path_24" data-name="Path 24" d="M464.651,229.844a.8.8,0,1,1,.832-.778.8.8,0,0,1-.832.778Zm.619,7.738h-1.241V231.31h1.241Z" transform="translate(-319.188 -192.276)" fill="#231f20"/>
  <path id="Path_25" data-name="Path 25" d="M474.48,234.345h-1.669v3.268c0,.751.265,1.058.887,1.058a1.766,1.766,0,0,0,.727-.16l.039,1.019a3.225,3.225,0,0,1-1.058.171,1.694,1.694,0,0,1-1.825-1.945v-3.4h-1.2v-1.019h1.2v-1.8h1.229v1.8h1.669Z" transform="translate(-323.158 -194.291)" fill="#231f20"/>
  <path id="Path_26" data-name="Path 26" d="M484.641,229.844a.8.8,0,1,1,.833-.778.8.8,0,0,1-.833.778Zm.622,7.738h-1.245V231.31h1.245Z" transform="translate(-331.401 -192.276)" fill="#231f20"/>
  <path id="Path_27" data-name="Path 27" d="M495.569,242.3a3.307,3.307,0,1,1,3.384-3.318,3.252,3.252,0,0,1-3.384,3.318Zm0-5.582a2.276,2.276,0,1,0,2.089,2.264A2.1,2.1,0,0,0,495.569,236.722Z" transform="translate(-336.576 -196.828)" fill="#231f20"/>
  <path id="Path_28" data-name="Path 28" d="M514.835,235.861c.027.319.054.778.054,1.031h.039a2.336,2.336,0,0,1,4.369,1.35v3.89h-1.214V238.65c0-1.015-.28-1.914-1.432-1.914-.976,0-1.677.817-1.677,2.062v3.334h-1.245v-4.921a12.786,12.786,0,0,0-.051-1.35Z" transform="translate(-349.614 -196.826)" fill="#231f20"/>
  <path id="Path_29" data-name="Path 29" d="M533.766,249.728a.868.868,0,1,1,.883-.871A.879.879,0,0,1,533.766,249.728Z" transform="translate(-361.321 -204.345)" fill="#231f20"/>
  <path id="Path_30" data-name="Path 30" d="M550,228.18h3.213c2.393,0,5.057,1.362,5.057,4.668,0,3.2-2.661,4.668-5.057,4.668H550Zm1.307,8.212h1.642c2.26,0,3.914-1.3,3.914-3.532,0-2.334-1.653-3.544-3.914-3.544h-1.626Z" transform="translate(-371.805 -192.238)" fill="#231f20"/>
  <path id="Path_31" data-name="Path 31" d="M580.912,239.366h-4.956a2.007,2.007,0,0,0,2.039,1.906,2.155,2.155,0,0,0,1.824-.953l.871.7a3.233,3.233,0,0,1-2.7,1.284,3.307,3.307,0,0,1-.066-6.613,2.922,2.922,0,0,1,3.015,3.252C580.924,239.075,580.924,239.222,580.912,239.366Zm-1.245-.926a1.666,1.666,0,0,0-1.758-1.77,1.945,1.945,0,0,0-1.972,1.77Z" transform="translate(-386.868 -196.827)" fill="#231f20"/>
  <path id="Path_32" data-name="Path 32" d="M598.98,237.443a1.77,1.77,0,0,0-1.439-.712,2.27,2.27,0,0,0,.012,4.52,1.871,1.871,0,0,0,1.505-.689l.836.755a3.007,3.007,0,0,1-2.334.98,3.309,3.309,0,1,1-.027-6.613,3.015,3.015,0,0,1,2.354,1.031Z" transform="translate(-398.8 -196.821)" fill="#231f20"/>
  <path id="Path_33" data-name="Path 33" d="M612.441,229.844a.8.8,0,1,1,.833-.778A.813.813,0,0,1,612.441,229.844Zm.622,7.738h-1.245V231.31h1.245Z" transform="translate(-409.484 -192.276)" fill="#231f20"/>
  <path id="Path_34" data-name="Path 34" d="M623.1,237.444a1.712,1.712,0,0,0-1.455-.778c-.568,0-1.167.222-1.167.817,0,.529.475.727,1.428.941,1.19.265,2.1.755,2.1,1.852,0,1.478-1.229,2.023-2.5,2.023A3.206,3.206,0,0,1,619,241.175l.883-.755a2.062,2.062,0,0,0,1.669.871c.622,0,1.241-.222,1.241-.91,0-.584-.568-.778-1.638-1.046-.833-.2-1.824-.556-1.824-1.731,0-1.35,1.167-1.918,2.365-1.918a2.77,2.77,0,0,1,2.276,1.031Z" transform="translate(-413.962 -196.823)" fill="#231f20"/>
  <path id="Path_35" data-name="Path 35" d="M636.291,229.843a.8.8,0,1,1,.8-.8.8.8,0,0,1-.8.8Zm.622,7.738h-1.225v-6.271h1.241Z" transform="translate(-424.037 -192.275)" fill="#231f20"/>
  <path id="Path_36" data-name="Path 36" d="M647.275,242.3a3.307,3.307,0,1,1,3.388-3.318,3.252,3.252,0,0,1-3.388,3.318Zm0-5.582a2.276,2.276,0,1,0,2.089,2.264A2.1,2.1,0,0,0,647.275,236.723Z" transform="translate(-429.267 -196.828)" fill="#231f20"/>
  <path id="Path_37" data-name="Path 37" d="M666.5,235.861c.023.319.051.778.051,1.031h.039a2.339,2.339,0,0,1,4.373,1.35v3.89h-1.245V238.65c0-1.015-.276-1.914-1.428-1.914-.98,0-1.681.817-1.681,2.062v3.334h-1.241v-4.921a11.875,11.875,0,0,0-.055-1.35Z" transform="translate(-442.256 -196.826)" fill="#231f20"/>
</svg>
